# xmcd CD database file
#
# Track frame offsets:
#	187
#	21749
#	45777
#	66977
#	80937
#	99909
#	116737
#	132099
#	155317
#	179384
#
# Disc length: 2696 seconds
#
# Revision: 0
# Processed by: cddbd v1.5.1PL0 Copyright (c) Steve Scherf et al.
# Submitted via: CDex 1.51
#
DISCID=820a860a
DTITLE=柿原朱美 - Living Together
DYEAR=1992
DGENRE=JPop
TTITLE0=I Was Seventeen
TTITLE1=Feeling
TTITLE2=生まれかわるように
TTITLE3=Living Together
TTITLE4=Friends In Love
TTITLE5=Free Ticket
TTITLE6=小さな瞬間
TTITLE7=Silent Storm
TTITLE8=Coming Back
TTITLE9=For You For Me
EXTD=YEAR: 1992
EXTT0=
EXTT1=
EXTT2=
EXTT3=
EXTT4=
EXTT5=
EXTT6=
EXTT7=
EXTT8=
EXTT9=
PLAYORDER=
